
<svg version="1.0" xmlns="http://www.w3.org/2000/svg"
 width="512.000000pt" height="512.000000pt" viewBox="0 0 512.000000 512.000000"
 preserveAspectRatio="xMidYMid meet">

<g transform="translate(0.000000,512.000000) scale(0.100000,-0.100000)"
fill="#111518" stroke="none">
<path d="M2375 4900 c-307 -26 -579 -102 -862 -241 -705 -347 -1177 -1015
-1284 -1819 -16 -122 -16 -438 0 -560 49 -369 181 -729 374 -1017 269 -402
643 -706 1087 -883 868 -346 1873 -140 2530 520 293 294 509 670 609 1063 102
398 102 796 0 1194 -40 155 -88 283 -170 450 -228 464 -596 830 -1064 1058
-315 154 -613 227 -970 239 -82 2 -195 1 -250 -4z m376 -430 c775 -79 1420
-607 1644 -1346 63 -206 78 -319 78 -564 0 -175 -4 -236 -21 -330 -41 -227
-129 -467 -237 -649 -169 -283 -436 -542 -722 -702 -538 -298 -1213 -316
-1774 -46 -346 167 -651 455 -840 794 -340 612 -312 1400 71 1983 191 290 462
529 769 677 319 154 683 218 1032 183z"/>
<path d="M1919 3387 c-29 -16 -54 -40 -74 -72 l-30 -48 0 -707 0 -707 30 -48
c40 -65 97 -95 179 -95 104 1 182 53 206 138 14 51 14 1373 0 1424 -24 85
-102 137 -206 138 -45 0 -73 -6 -105 -23z"/>
<path d="M2995 3391 c-50 -22 -91 -69 -105 -119 -14 -51 -14 -1373 0 -1424 24
-85 102 -137 206 -138 82 0 139 30 179 95 l30 48 0 707 0 707 -30 48 c-40 65
-97 95 -179 95 -37 0 -77 -8 -101 -19z"/>
</g>
</svg>
