
<svg version="1.0" xmlns="http://www.w3.org/2000/svg"
 width="512.000000pt" height="512.000000pt" viewBox="0 0 512.000000 512.000000"
 preserveAspectRatio="xMidYMid meet">

<g transform="translate(0.000000,512.000000) scale(0.100000,-0.100000)"
fill="#111518" stroke="none">
<path d="M2285 4675 c-625 -82 -1170 -429 -1525 -970 -161 -247 -285 -598
-320 -910 -13 -118 -13 -351 1 -473 52 -477 267 -922 613 -1268 510 -510 1223
-724 1936 -583 729 145 1354 698 1591 1409 147 442 147 920 -1 1362 -182 544
-591 1002 -1118 1250 -197 93 -445 163 -667 188 -122 13 -387 11 -510 -5z
m414 -415 c599 -53 1109 -397 1382 -932 387 -759 148 -1688 -559 -2176 -501
-345 -1172 -393 -1715 -121 -700 350 -1075 1118 -917 1876 138 662 662 1185
1326 1324 170 35 313 44 483 29z"/>
<path  fill="#44B678" d="M2130 2560 l0 -962 38 29 c268 197 1241 929 1241 933 0 4 -973 736
-1241 933 l-38 29 0 -962z"/>
</g>
</svg>
